<mxfile host="app.diagrams.net" modified="2024-07-02T18:03:08.142Z" agent="Mozilla/5.0 (Windows NT 10.0; Win64; x64) AppleWebKit/537.36 (KHTML, like Gecko) Chrome/126.0.0.0 Safari/537.36" version="24.6.4" etag="tAs5sIeTywfIYPk-dAm_" type="github">
  <diagram name="Page-1" id="Lu3S1JE0tHanpfTcrmEG">
    <mxGraphModel>
      <root>
        <mxCell id="0" />
        <mxCell id="1" parent="0" />
      </root>
    </mxGraphModel>
  </diagram>
</mxfile>
